<?xml version="1.0" encoding="iso-8859-1"?>
<!-- Generator: Adobe Illustrator 19.1.1, SVG Export Plug-In . SVG Version: 6.00 Build 0)  -->
<svg xmlns="http://www.w3.org/2000/svg" xmlns:xlink="http://www.w3.org/1999/xlink" version="1.1" id="Layer_1" x="0px" y="0px" viewBox="0 0 40 40" style="enable-background:new 0 0 40 40;" xml:space="preserve" width="480px" height="480px">
<g>
	<path style="fill:#E1EBF2;" d="M20,38.5c-10.313,0-17.5-2.635-17.5-5s7.187-5,17.5-5s17.5,2.635,17.5,5S30.313,38.5,20,38.5z"/>
	<path style="fill:#A3B7CC;" d="M20,29c10.378,0,17,2.665,17,4.5S30.378,38,20,38S3,35.335,3,33.5S9.622,29,20,29 M20,28   c-9.941,0-18,2.462-18,5.5S10.059,39,20,39s18-2.462,18-5.5S29.941,28,20,28L20,28z"/>
</g>
<g>
	<path style="fill:#FFEEA3;" d="M20,8.5c-1.93,0-3.5-1.57-3.5-3.5s1.57-3.5,3.5-3.5s3.5,1.57,3.5,3.5S21.93,8.5,20,8.5z"/>
	<path style="fill:#BA9B48;" d="M20,2c1.654,0,3,1.346,3,3s-1.346,3-3,3s-3-1.346-3-3S18.346,2,20,2 M20,1c-2.209,0-4,1.791-4,4   s1.791,4,4,4s4-1.791,4-4S22.209,1,20,1L20,1z"/>
</g>
<g>
	<g>
		<path style="fill:#8BB7F0;" d="M16.5,33.5v-9.768l-3-2V16c0-3.084,2.551-5.5,5.808-5.5h1.385c3.257,0,5.808,2.416,5.808,5.5v5.732    l-3,2V33.5H16.5z"/>
		<path style="fill:#4E7AB5;" d="M20.692,11C23.669,11,26,13.196,26,16v5.465l-2.555,1.703L23,23.465V24v9h-6v-9v-0.535    l-0.445-0.297L14,21.465V16c0-2.804,2.331-5,5.308-5H20H20.692 M20.692,10H20h-0.692C15.867,10,13,12.559,13,16v6l3,2v10h8V24l3-2    v-6C27,12.559,24.133,10,20.692,10L20.692,10z"/>
	</g>
</g>
</svg>
